<mxfile host="app.diagrams.net" modified="2021-08-31T06:38:42.274Z" agent="5.0 (Windows NT 6.1; Win64; x64) AppleWebKit/537.36 (KHTML, like Gecko) Chrome/92.0.4515.159 Safari/537.36" etag="5uzo0CaaeRILYgEuffmB" version="14.4.2" type="github">
  <diagram id="RSJ4ibZf8QGvRrlYO9_c" name="Page-1">
    <mxGraphModel dx="1422" dy="837" grid="1" gridSize="10" guides="1" tooltips="1" connect="1" arrows="1" fold="1" page="1" pageScale="1" pageWidth="827" pageHeight="1169" math="0" shadow="0">
      <root>
        <mxCell id="0" />
        <mxCell id="1" parent="0" />
        <mxCell id="O54G8cgzVf41zhvm-14V-5" value="" style="edgeStyle=orthogonalEdgeStyle;rounded=0;orthogonalLoop=1;jettySize=auto;html=1;" parent="1" source="O54G8cgzVf41zhvm-14V-1" target="O54G8cgzVf41zhvm-14V-4" edge="1">
          <mxGeometry relative="1" as="geometry" />
        </mxCell>
        <mxCell id="O54G8cgzVf41zhvm-14V-1" value="BPMN执行引擎" style="ellipse;whiteSpace=wrap;html=1;aspect=fixed;" parent="1" vertex="1">
          <mxGeometry x="420" y="120" width="80" height="80" as="geometry" />
        </mxCell>
        <mxCell id="O54G8cgzVf41zhvm-14V-3" value="发起流程（流程ID）" style="edgeStyle=orthogonalEdgeStyle;rounded=0;orthogonalLoop=1;jettySize=auto;html=1;" parent="1" source="O54G8cgzVf41zhvm-14V-2" target="O54G8cgzVf41zhvm-14V-1" edge="1">
          <mxGeometry relative="1" as="geometry" />
        </mxCell>
        <mxCell id="O54G8cgzVf41zhvm-14V-2" value="用户" style="ellipse;whiteSpace=wrap;html=1;aspect=fixed;" parent="1" vertex="1">
          <mxGeometry x="180" y="120" width="80" height="80" as="geometry" />
        </mxCell>
        <mxCell id="O54G8cgzVf41zhvm-14V-7" value="" style="edgeStyle=orthogonalEdgeStyle;rounded=0;orthogonalLoop=1;jettySize=auto;html=1;" parent="1" source="O54G8cgzVf41zhvm-14V-4" target="O54G8cgzVf41zhvm-14V-6" edge="1">
          <mxGeometry relative="1" as="geometry" />
        </mxCell>
        <mxCell id="O54G8cgzVf41zhvm-14V-4" value="&lt;b&gt;执行节点&lt;/b&gt;&lt;br&gt;人工任务/系统任务/子流程" style="whiteSpace=wrap;html=1;" parent="1" vertex="1">
          <mxGeometry x="400" y="270" width="120" height="60" as="geometry" />
        </mxCell>
        <mxCell id="O54G8cgzVf41zhvm-14V-9" value="" style="edgeStyle=orthogonalEdgeStyle;rounded=0;orthogonalLoop=1;jettySize=auto;html=1;" parent="1" source="O54G8cgzVf41zhvm-14V-6" target="O54G8cgzVf41zhvm-14V-14" edge="1">
          <mxGeometry relative="1" as="geometry">
            <mxPoint x="460" y="520" as="targetPoint" />
          </mxGeometry>
        </mxCell>
        <mxCell id="O54G8cgzVf41zhvm-14V-17" style="edgeStyle=orthogonalEdgeStyle;rounded=0;orthogonalLoop=1;jettySize=auto;html=1;" parent="1" source="O54G8cgzVf41zhvm-14V-6" target="O54G8cgzVf41zhvm-14V-11" edge="1">
          <mxGeometry relative="1" as="geometry" />
        </mxCell>
        <mxCell id="O54G8cgzVf41zhvm-14V-18" value="驳回" style="edgeLabel;html=1;align=center;verticalAlign=middle;resizable=0;points=[];" parent="O54G8cgzVf41zhvm-14V-17" vertex="1" connectable="0">
          <mxGeometry x="0.1833" relative="1" as="geometry">
            <mxPoint as="offset" />
          </mxGeometry>
        </mxCell>
        <mxCell id="O54G8cgzVf41zhvm-14V-19" value="重复此步骤" style="edgeStyle=orthogonalEdgeStyle;rounded=0;orthogonalLoop=1;jettySize=auto;html=1;" parent="1" source="O54G8cgzVf41zhvm-14V-6" edge="1">
          <mxGeometry relative="1" as="geometry">
            <mxPoint x="520" y="300" as="targetPoint" />
            <Array as="points">
              <mxPoint x="600" y="430" />
              <mxPoint x="600" y="300" />
              <mxPoint x="520" y="300" />
            </Array>
          </mxGeometry>
        </mxCell>
        <mxCell id="O54G8cgzVf41zhvm-14V-6" value="&lt;b&gt;处理人进行处理&lt;/b&gt;&lt;br&gt;&lt;span style=&quot;font-size: 11px ; background-color: rgb(255 , 255 , 255)&quot;&gt;处理（委托、抄送、加签等）&lt;/span&gt;" style="ellipse;whiteSpace=wrap;html=1;" parent="1" vertex="1">
          <mxGeometry x="400" y="390" width="120" height="80" as="geometry" />
        </mxCell>
        <mxCell id="O54G8cgzVf41zhvm-14V-11" value="终止流程" style="ellipse;whiteSpace=wrap;html=1;" parent="1" vertex="1">
          <mxGeometry x="160" y="390" width="120" height="80" as="geometry" />
        </mxCell>
        <mxCell id="O54G8cgzVf41zhvm-14V-14" value="流程执行完成" style="ellipse;whiteSpace=wrap;html=1;" parent="1" vertex="1">
          <mxGeometry x="400" y="535" width="120" height="80" as="geometry" />
        </mxCell>
        <mxCell id="O54G8cgzVf41zhvm-14V-16" value="&lt;span style=&quot;font-size: 11px ; background-color: rgb(255 , 255 , 255)&quot;&gt;将执行进度存入数据库，记录执行日志&lt;/span&gt;" style="text;html=1;strokeColor=none;fillColor=none;align=center;verticalAlign=middle;whiteSpace=wrap;rounded=0;" parent="1" vertex="1">
          <mxGeometry x="530" y="270" width="220" height="20" as="geometry" />
        </mxCell>
        <mxCell id="O54G8cgzVf41zhvm-14V-23" value="根据流程ID取出对应流程，&lt;br&gt;从上一次执行进度开始执行" style="edgeStyle=orthogonalEdgeStyle;rounded=0;orthogonalLoop=1;jettySize=auto;html=1;" parent="1" source="O54G8cgzVf41zhvm-14V-22" target="O54G8cgzVf41zhvm-14V-4" edge="1">
          <mxGeometry x="-0.0476" y="20" relative="1" as="geometry">
            <Array as="points">
              <mxPoint x="280" y="300" />
              <mxPoint x="280" y="300" />
            </Array>
            <mxPoint as="offset" />
          </mxGeometry>
        </mxCell>
        <mxCell id="O54G8cgzVf41zhvm-14V-22" value="数据库" style="shape=cylinder3;whiteSpace=wrap;html=1;boundedLbl=1;backgroundOutline=1;size=15;" parent="1" vertex="1">
          <mxGeometry x="130" y="260" width="60" height="80" as="geometry" />
        </mxCell>
        <mxCell id="390sJo7pWf3cOWKUO66b-1" value="执行引擎工作流程" style="text;html=1;strokeColor=none;fillColor=none;align=center;verticalAlign=middle;whiteSpace=wrap;rounded=0;fontSize=20;" vertex="1" parent="1">
          <mxGeometry x="300" y="40" width="180" height="30" as="geometry" />
        </mxCell>
      </root>
    </mxGraphModel>
  </diagram>
</mxfile>
